<mxfile host="Electron" agent="Mozilla/5.0 (Windows NT 10.0; Win64; x64) AppleWebKit/537.36 (KHTML, like Gecko) draw.io/26.1.1 Chrome/132.0.6834.210 Electron/34.3.3 Safari/537.36" version="26.1.1">
  <diagram name="Pagina-1" id="XzOSMxnMsRCDIeIarl_u">
    <mxGraphModel dx="1034" dy="511" grid="1" gridSize="10" guides="1" tooltips="1" connect="1" arrows="1" fold="1" page="1" pageScale="1" pageWidth="827" pageHeight="1169" math="0" shadow="0">
      <root>
        <mxCell id="0" />
        <mxCell id="1" parent="0" />
        <mxCell id="KAN03Zdmcv_HefRrwG9L-1" value="Utente" style="shape=umlActor;verticalLabelPosition=bottom;verticalAlign=top;html=1;" vertex="1" parent="1">
          <mxGeometry x="149" y="195" width="30" height="60" as="geometry" />
        </mxCell>
        <mxCell id="KAN03Zdmcv_HefRrwG9L-2" value="Visualizza Riepilogo" style="ellipse;whiteSpace=wrap;html=1;" vertex="1" parent="1">
          <mxGeometry x="319" y="190" width="140" height="70" as="geometry" />
        </mxCell>
        <mxCell id="KAN03Zdmcv_HefRrwG9L-3" value="Filtra Risultati" style="ellipse;whiteSpace=wrap;html=1;" vertex="1" parent="1">
          <mxGeometry x="539" y="120" width="140" height="70" as="geometry" />
        </mxCell>
        <mxCell id="KAN03Zdmcv_HefRrwG9L-4" value="Ordina Risultati" style="ellipse;whiteSpace=wrap;html=1;" vertex="1" parent="1">
          <mxGeometry x="539" y="270" width="140" height="70" as="geometry" />
        </mxCell>
        <mxCell id="KAN03Zdmcv_HefRrwG9L-7" value="&lt;span style=&quot;color: rgb(32, 33, 34); text-align: start; text-wrap-mode: wrap;&quot;&gt;&lt;font style=&quot;font-size: 11px;&quot;&gt;«extends»&lt;/font&gt;&lt;/span&gt;" style="html=1;verticalAlign=bottom;endArrow=open;dashed=1;endSize=8;curved=0;rounded=0;" edge="1" parent="1" source="KAN03Zdmcv_HefRrwG9L-3" target="KAN03Zdmcv_HefRrwG9L-2">
          <mxGeometry x="0.0561" y="-6" relative="1" as="geometry">
            <mxPoint x="549" y="178" as="sourcePoint" />
            <mxPoint x="439" y="212" as="targetPoint" />
            <mxPoint as="offset" />
          </mxGeometry>
        </mxCell>
        <mxCell id="KAN03Zdmcv_HefRrwG9L-8" value="&lt;span style=&quot;color: rgb(32, 33, 34); text-align: start; text-wrap-mode: wrap;&quot;&gt;&lt;font style=&quot;font-size: 11px;&quot;&gt;«extends»&lt;/font&gt;&lt;/span&gt;" style="html=1;verticalAlign=bottom;endArrow=open;dashed=1;endSize=8;curved=0;rounded=0;" edge="1" parent="1" source="KAN03Zdmcv_HefRrwG9L-4" target="KAN03Zdmcv_HefRrwG9L-2">
          <mxGeometry x="-0.1514" y="23" relative="1" as="geometry">
            <mxPoint x="559" y="188" as="sourcePoint" />
            <mxPoint x="449" y="222" as="targetPoint" />
            <mxPoint as="offset" />
          </mxGeometry>
        </mxCell>
        <mxCell id="KAN03Zdmcv_HefRrwG9L-9" value="" style="endArrow=none;html=1;edgeStyle=orthogonalEdgeStyle;rounded=0;" edge="1" parent="1" source="KAN03Zdmcv_HefRrwG9L-1" target="KAN03Zdmcv_HefRrwG9L-2">
          <mxGeometry relative="1" as="geometry">
            <mxPoint x="329" y="280" as="sourcePoint" />
            <mxPoint x="489" y="280" as="targetPoint" />
          </mxGeometry>
        </mxCell>
      </root>
    </mxGraphModel>
  </diagram>
</mxfile>
